<svg width="52" height="52" viewBox="0 0 52 52" fill="none" xmlns="http://www.w3.org/2000/svg">
<path d="M39 49.5H31.2543V38.3921V35.8921H28.7543H22.3301H19.8301V38.3921V49.5H12C11.326 49.5 10.4791 49.1432 9.7491 48.3911C9.01726 47.6371 8.66041 46.7486 8.66041 46.0584V32.2139V29.7139H6.16041H3.67101C3.16024 29.7139 2.5 29.2269 2.5 28.3259C2.5 27.9155 2.65678 27.5438 2.89612 27.2903L26.0011 2.83765L49.106 27.2903C49.6308 27.8461 49.6311 28.8033 49.1083 29.3591L49.1047 29.363C48.8789 29.6042 48.6 29.7139 48.3311 29.7139H45.8417H43.3417V32.2139V46.0584C43.3417 47.1088 42.8672 47.8967 42.0544 48.5009C41.1814 49.1499 40.0029 49.5 39 49.5Z" stroke="white" stroke-width="5"/>
</svg>
