<svg width="52" height="52" viewBox="0 0 52 52" fill="none" xmlns="http://www.w3.org/2000/svg">
<path d="M35.9035 39.838C31.4313 43.3096 25.8043 44.9463 20.168 44.415C14.5316 43.8837 9.30952 41.2243 5.56472 36.9782C1.81993 32.732 -0.166104 27.2183 0.01089 21.5594C0.187884 15.9004 2.5146 10.5216 6.51743 6.51784C10.521 2.51476 15.8994 0.187896 21.558 0.0108907C27.2166 -0.166115 32.7299 1.82005 36.9758 5.56508C41.2217 9.31011 43.8809 14.5325 44.4122 20.1692C44.9434 25.806 43.3068 31.4333 39.8355 35.9058L51.1122 47.1832C51.4784 47.5233 51.7461 47.9558 51.8871 48.4353C52.0281 48.9147 52.0372 49.4234 51.9134 49.9076C51.7896 50.3918 51.5375 50.8336 51.1837 51.1866C50.8299 51.5395 50.3874 51.7905 49.9029 51.913C49.4193 52.037 48.9112 52.0283 48.4321 51.888C47.9529 51.7476 47.5205 51.4807 47.1802 51.1154L35.9035 39.838ZM38.9452 22.2542C38.9782 20.0418 38.571 17.8449 37.7472 15.7913C36.9234 13.7377 35.6995 11.8685 34.1467 10.2923C32.5939 8.71605 30.7432 7.46436 28.7023 6.60999C26.6614 5.75562 24.4709 5.31564 22.2584 5.31564C20.0459 5.31564 17.8554 5.75562 15.8145 6.60999C13.7735 7.46436 11.9228 8.71605 10.37 10.2923C8.81725 11.8685 7.59337 13.7377 6.76958 15.7913C5.94579 17.8449 5.53854 20.0418 5.57153 22.2542C5.63687 26.6371 7.42369 30.8182 10.546 33.8945C13.6683 36.9708 17.8754 38.6952 22.2584 38.6952C26.6414 38.6952 30.8485 36.9708 33.9708 33.8945C37.0931 30.8182 38.8799 26.6371 38.9452 22.2542Z" fill="white"/>
</svg>
