<svg width="52" height="52" viewBox="0 0 52 52" fill="none" xmlns="http://www.w3.org/2000/svg">
<path d="M39 50H30.7543V38.3921V36.3921H28.7543H22.3301H20.3301V38.3921V50H12C11.1608 50 10.1913 49.5645 9.39032 48.7393C8.58787 47.9126 8.16041 46.9047 8.16041 46.0584V32.2139V30.2139H6.16041H3.67101C2.85743 30.2139 2 29.4756 2 28.3259C2 27.791 2.20343 27.2956 2.53256 26.947L26.0011 2.10963L49.4696 26.947C50.1762 27.6954 50.1764 28.9532 49.4726 29.7017L49.4696 29.7048C49.1513 30.0447 48.7412 30.2139 48.3311 30.2139H45.8417H43.8417V32.2139V46.0584C43.8417 47.2929 43.27 48.2203 42.3527 48.9022C41.3872 49.6199 40.1024 50 39 50Z" stroke="white" stroke-width="4"/>
</svg>
